<svg data-logo="logo" xmlns="http://www.w3.org/2000/svg" viewBox="0 0 217 43">
            <g id="logogram" transform="translate(0, 1) rotate(0)" style="opacity: 1;"><path fill-rule="evenodd" clip-rule="evenodd" d="M19.8701 5.34961L22.5068 0.782715L29.9833 5.09924L27.3466 9.66614C26.8842 10.467 27.5774 11.4404 28.4854 11.2653L33.5371 10.2912L35.1717 18.7681L30.12 19.7422C21.948 21.318 15.7088 12.5572 19.8701 5.34961Z" fill="#152847"></path><path fill-rule="evenodd" clip-rule="evenodd" d="M15.3016 36.2159L12.6649 40.7828L5.18846 36.4662L7.82515 31.8993C8.28752 31.0985 7.59429 30.1251 6.68627 30.3002L1.6346 31.2743L0 22.7974L5.05167 21.8233C13.2237 20.2475 19.4629 29.0083 15.3016 36.2159Z" fill="#152847"></path><path fill-rule="evenodd" clip-rule="evenodd" d="M15.5303 5.34961L12.8936 0.782715L5.41715 5.09924L8.05385 9.66614C8.51622 10.467 7.82299 11.4404 6.91497 11.2653L1.8633 10.2912L0.228699 18.7681L5.28037 19.7422C13.4524 21.318 19.6916 12.5572 15.5303 5.34961Z" fill="#33B9CB"></path><path fill-rule="evenodd" clip-rule="evenodd" d="M19.6496 36.2159L22.2863 40.7828L29.7627 36.4662L27.126 31.8993C26.6637 31.0985 27.3569 30.1251 28.2649 30.3002L33.3166 31.2743L34.9512 22.7974L29.8995 21.8233C21.7275 20.2475 15.4883 29.0083 19.6496 36.2159Z" fill="#33B9CB"></path></g>
            <g id="logotype" transform="translate(42, 8.5)" style="opacity: 1;"><path fill="#152847" d="M13.83 23.07L13.83 23.07Q13.83 24.04 13.27 24.52Q12.72 25 11.78 25L11.78 25L7.95 25Q7.03 25 6.47 24.56Q5.91 24.11 5.91 23.14L5.91 23.14Q5.91 22.32 6.23 21.92Q6.55 21.51 6.98 21.25Q7.42 20.98 7.76 20.60Q8.10 20.21 8.15 19.43L8.15 19.43L9.01 6.92L9.01 6.77Q9.01 6.12 8.67 5.78Q8.32 5.45 7.88 5.18Q7.44 4.90 7.09 4.47Q6.75 4.03 6.75 3.21L6.75 3.21Q6.75 2.25 7.32 1.80Q7.88 1.35 8.79 1.35L8.79 1.35L14.85 1.35Q16.56 1.35 17.43 2.34Q18.30 3.33 18.80 4.80L18.80 4.80L21.59 12.99L24.30 4.80Q24.80 3.28 25.67 2.31Q26.54 1.35 28.29 1.35L28.29 1.35L34.45 1.35Q35.38 1.35 35.94 1.79Q36.51 2.24 36.51 3.21L36.51 3.21Q36.51 4.01 36.16 4.47Q35.82 4.92 35.37 5.21Q34.92 5.50 34.57 5.82Q34.23 6.13 34.23 6.68L34.23 6.68L34.23 6.77L34.95 19.41Q35.00 20.25 35.32 20.62Q35.63 20.98 36.03 21.21Q36.42 21.43 36.72 21.80Q37.02 22.16 37.02 23.02L37.02 23.02Q37.02 23.97 36.48 24.49Q35.94 25 34.98 25L34.98 25L26.44 25Q25.52 25 24.96 24.56Q24.41 24.11 24.41 23.14L24.41 23.14Q24.41 22.37 24.75 21.92Q25.09 21.46 25.54 21.16Q26.00 20.86 26.34 20.56Q26.68 20.25 26.68 19.74L26.68 19.74L26.68 19.63L26.10 11.50L22.61 21.55Q22.35 22.30 21.99 23.01Q21.62 23.72 21.04 24.17Q20.46 24.62 19.54 24.62L19.54 24.62Q18.36 24.62 17.79 24.21Q17.23 23.80 16.68 22.81L16.68 22.81Q16.29 22.11 16.03 21.36L16.03 21.36L12.48 11.31L11.93 19.43L11.93 19.57Q11.93 20.15 12.22 20.51Q12.51 20.88 12.88 21.19Q13.25 21.50 13.54 21.92Q13.83 22.35 13.83 23.07ZM38.52 3.21L38.52 3.21Q38.52 2.24 39.10 1.79Q39.68 1.35 40.59 1.35L40.59 1.35L52.02 1.35Q52.45 1.35 53.27 1.26Q54.09 1.18 54.47 1.01L54.47 1.01Q54.86 1.01 55.23 0.89Q55.59 0.78 55.97 0.78L55.97 0.78Q57.15 0.78 57.72 1.42Q58.29 2.05 58.57 2.96Q58.84 3.88 59.10 4.77L59.10 4.77Q59.29 5.40 59.53 6.12Q59.78 6.83 59.78 7.52L59.78 7.52Q59.78 8.32 59.12 8.73Q58.47 9.14 57.75 9.14L57.75 9.14Q57.01 9.14 56.63 8.78Q56.24 8.42 55.90 7.82L55.90 7.82Q55.34 6.80 54.92 6.22Q54.50 5.64 53.86 5.40Q53.22 5.16 51.95 5.16L51.95 5.16L49.36 5.16L49.36 11.43L50.71 11.43Q51.53 11.43 51.85 11.02Q52.18 10.61 52.34 10.06Q52.50 9.52 52.83 9.11Q53.17 8.70 54.01 8.70L54.01 8.70Q54.71 8.70 55.12 9.09Q55.54 9.48 55.70 10.13L55.70 10.13L56.74 14.47Q56.77 14.64 56.81 14.84Q56.84 15.04 56.84 15.22L56.84 15.22Q56.84 15.98 56.33 16.44Q55.82 16.90 55.08 16.90L55.08 16.90Q54.57 16.90 54.22 16.63Q53.87 16.37 53.54 16.01L53.54 16.01Q53.05 15.45 52.75 15.21Q52.45 14.97 52.07 14.92Q51.70 14.87 50.96 14.87L50.96 14.87L49.36 14.87L49.36 18.33Q49.36 19.65 50.09 20.42Q50.83 21.19 52.16 21.19L52.16 21.19Q53.53 21.19 54.27 20.95Q55.01 20.71 55.50 20.09Q55.99 19.46 56.60 18.30L56.60 18.30Q56.93 17.70 57.30 17.33Q57.68 16.95 58.41 16.95L58.41 16.95Q59.22 16.95 59.82 17.44Q60.43 17.92 60.43 18.78L60.43 18.78Q60.43 19.10 60.31 19.53L60.31 19.53L59.35 22.90Q59.03 24.04 58.50 24.82Q57.97 25.60 56.62 25.60L56.62 25.60Q56.09 25.60 55.58 25.47Q55.06 25.34 54.57 25.22L54.57 25.22Q53.66 25 52.66 25L52.66 25L40.59 25Q39.68 25 39.10 24.56Q38.52 24.11 38.52 23.14L38.52 23.14Q38.52 22.25 38.89 21.82Q39.26 21.39 39.74 21.13Q40.21 20.86 40.58 20.51Q40.95 20.15 40.95 19.41L40.95 19.41L40.95 6.94Q40.95 6.20 40.58 5.84Q40.21 5.48 39.74 5.22Q39.26 4.95 38.89 4.53Q38.52 4.10 38.52 3.21ZM62.53 23.14L62.53 23.14Q62.53 22.25 62.89 21.82Q63.25 21.39 63.73 21.12Q64.21 20.85 64.57 20.50Q64.93 20.15 64.93 19.41L64.93 19.41L64.93 6.94Q64.93 6.18 64.57 5.83Q64.21 5.47 63.73 5.20Q63.25 4.94 62.89 4.51Q62.53 4.08 62.53 3.21L62.53 3.21Q62.53 2.25 63.11 1.80Q63.68 1.35 64.58 1.35L64.58 1.35L74.77 1.35Q78.60 1.35 81.64 2.89Q84.68 4.44 86.45 7.29Q88.22 10.15 88.22 14.10L88.22 14.10Q88.22 17.50 86.63 19.94Q85.04 22.39 82.36 23.69Q79.67 25 76.41 25L76.41 25L64.58 25Q63.66 25 63.10 24.56Q62.53 24.11 62.53 23.14ZM75.61 21.19L75.61 21.19Q76.87 21.19 77.66 20.42Q78.44 19.65 78.86 18.49Q79.28 17.33 79.44 16.08Q79.59 14.83 79.59 13.89L79.59 13.89Q79.59 12.58 79.35 11.06Q79.11 9.55 78.50 8.21Q77.90 6.87 76.83 6.01Q75.76 5.16 74.09 5.16L74.09 5.16L73.33 5.16L73.33 18.52Q73.33 19.69 73.82 20.44Q74.31 21.19 75.61 21.19ZM113.22 18.51L113.22 18.51Q113.22 19.26 112.96 19.96Q112.69 20.66 112.28 21.27L112.28 21.27Q111.27 22.81 109.73 23.79Q108.18 24.76 106.39 25.22Q104.59 25.68 102.81 25.68L102.81 25.68Q99.05 25.68 96.26 24.10Q93.47 22.52 91.93 19.69Q90.39 16.85 90.39 13.12L90.39 13.12Q90.39 10.61 91.28 8.36Q92.17 6.12 93.77 4.37Q95.38 2.63 97.56 1.64Q99.74 0.65 102.32 0.65L102.32 0.65Q103.12 0.65 103.92 0.74Q104.73 0.83 105.50 1.07L105.50 1.07Q105.98 1.23 106.45 1.42Q106.93 1.60 107.45 1.60L107.45 1.60Q107.91 1.60 108.27 1.37Q108.64 1.14 109.00 0.92Q109.36 0.70 109.77 0.70L109.77 0.70Q110.64 0.70 110.91 1.25Q111.19 1.79 111.38 2.48L111.38 2.48L112.91 7.81Q112.98 8.03 112.98 8.30L112.98 8.30Q112.98 9.11 112.33 9.51Q111.68 9.91 110.97 9.91L110.97 9.91Q110.13 9.91 109.61 9.33Q109.09 8.75 108.64 7.88Q108.20 7.02 107.61 6.17Q107.02 5.31 106.07 4.73Q105.12 4.15 103.57 4.15L103.57 4.15Q102.04 4.15 101.10 4.95Q100.17 5.74 99.67 6.98Q99.17 8.22 98.99 9.60Q98.81 10.99 98.81 12.15L98.81 12.15Q98.81 14.23 99.43 16.15Q100.05 18.06 101.46 19.28Q102.88 20.51 105.29 20.51L105.29 20.51Q106.57 20.51 107.62 19.98Q108.66 19.46 109.50 18.77Q110.33 18.08 110.96 17.56Q111.58 17.04 112.01 17.04L112.01 17.04Q112.64 17.04 112.93 17.49Q113.22 17.94 113.22 18.51ZM122.21 23.07L122.21 23.07Q122.21 24.04 121.66 24.52Q121.10 25 120.16 25L120.16 25L116.33 25Q115.41 25 114.85 24.56Q114.30 24.11 114.30 23.14L114.30 23.14Q114.30 22.32 114.61 21.92Q114.93 21.51 115.37 21.25Q115.80 20.98 116.14 20.60Q116.49 20.21 116.54 19.43L116.54 19.43L117.39 6.92L117.39 6.77Q117.39 6.12 117.05 5.78Q116.71 5.45 116.26 5.18Q115.82 4.90 115.48 4.47Q115.14 4.03 115.14 3.21L115.14 3.21Q115.14 2.25 115.70 1.80Q116.26 1.35 117.17 1.35L117.17 1.35L123.24 1.35Q124.95 1.35 125.82 2.34Q126.69 3.33 127.18 4.80L127.18 4.80L129.97 12.99L132.69 4.80Q133.18 3.28 134.05 2.31Q134.93 1.35 136.67 1.35L136.67 1.35L142.84 1.35Q143.76 1.35 144.33 1.79Q144.89 2.24 144.89 3.21L144.89 3.21Q144.89 4.01 144.55 4.47Q144.21 4.92 143.75 5.21Q143.30 5.50 142.96 5.82Q142.62 6.13 142.62 6.68L142.62 6.68L142.62 6.77L143.33 19.41Q143.39 20.25 143.70 20.62Q144.02 20.98 144.41 21.21Q144.80 21.43 145.10 21.80Q145.40 22.16 145.40 23.02L145.40 23.02Q145.40 23.97 144.86 24.49Q144.33 25 143.37 25L143.37 25L134.82 25Q133.90 25 133.34 24.56Q132.79 24.11 132.79 23.14L132.79 23.14Q132.79 22.37 133.13 21.92Q133.47 21.46 133.93 21.16Q134.38 20.86 134.72 20.56Q135.06 20.25 135.06 19.74L135.06 19.74L135.06 19.63L134.48 11.50L131.00 21.55Q130.74 22.30 130.37 23.01Q130.00 23.72 129.42 24.17Q128.84 24.62 127.92 24.62L127.92 24.62Q126.74 24.62 126.18 24.21Q125.61 23.80 125.06 22.81L125.06 22.81Q124.67 22.11 124.42 21.36L124.42 21.36L120.86 11.31L120.31 19.43L120.31 19.57Q120.31 20.15 120.60 20.51Q120.90 20.88 121.26 21.19Q121.63 21.50 121.92 21.92Q122.21 22.35 122.21 23.07ZM167.00 17.65L167.00 17.65Q167.00 16.85 166.96 16.04Q166.92 15.24 166.85 14.46L166.85 14.46L166.30 6.95Q166.23 6.03 165.93 5.80Q165.62 5.57 164.82 5.28L164.82 5.28Q163.96 4.95 163.53 4.60Q163.09 4.25 163.09 3.24L163.09 3.24Q163.09 2.34 163.62 1.84Q164.15 1.35 165.04 1.35L165.04 1.35L171.60 1.35Q172.49 1.35 173.02 1.84Q173.55 2.34 173.55 3.24L173.55 3.24Q173.55 4.05 173.20 4.46Q172.85 4.87 172.34 5.09Q171.84 5.31 171.33 5.50Q170.81 5.69 170.46 6.04Q170.11 6.39 170.11 7.07L170.11 7.07L170.11 7.18L170.87 14.42Q170.95 15.29 170.99 16.17Q171.04 17.05 171.04 17.92L171.04 17.92Q171.04 20.28 169.91 21.80Q168.78 23.31 166.98 24.16Q165.17 25.02 163.11 25.35Q161.04 25.68 159.16 25.68L159.16 25.68Q157.19 25.68 155.33 25.30Q153.47 24.91 151.96 24.01Q150.46 23.10 149.57 21.56Q148.68 20.03 148.68 17.74L148.68 17.74Q148.68 16.81 148.78 15.90Q148.87 14.99 148.94 14.06L148.94 14.06L149.44 6.73L149.44 6.63Q149.44 6.08 149.09 5.83Q148.75 5.59 148.24 5.45Q147.73 5.31 147.21 5.12Q146.70 4.92 146.36 4.49Q146.02 4.06 146.02 3.24L146.02 3.24Q146.02 2.34 146.55 1.84Q147.08 1.35 147.97 1.35L147.97 1.35L159.11 1.35Q160.00 1.35 160.53 1.84Q161.07 2.34 161.07 3.24L161.07 3.24Q161.07 4.08 160.75 4.46Q160.42 4.83 159.89 5.01Q159.36 5.19 158.77 5.48L158.77 5.48Q158.20 5.76 158.04 6.04Q157.88 6.32 157.84 6.94L157.84 6.94L157.47 12.39Q157.40 13.53 157.32 14.67Q157.25 15.81 157.25 16.95L157.25 16.95Q157.25 19.33 158.52 20.37Q159.79 21.41 162.06 21.41L162.06 21.41Q163.29 21.41 164.42 21.07Q165.55 20.73 166.28 19.90Q167.00 19.07 167.00 17.65Z"></path></g>
            
          </svg>